<svg width="25" height="23" viewBox="0 0 25 23" fill="none" xmlns="http://www.w3.org/2000/svg">
<path d="M7.22674 17.1726C6.13451 17.1168 6.15508 15.5805 7.22669 15.5271C10.2622 15.5377 18.2687 15.53 21.4008 15.5322C22.2575 15.5322 22.9904 14.9492 23.1831 14.1146L24.9616 6.41317C25.0634 5.97222 24.9606 5.51582 24.6796 5.16109C24.3986 4.80636 23.9779 4.60005 23.5254 4.60005C22.2654 4.60005 11.57 4.55164 6.09186 4.5298L5.22348 1.30773C5.01502 0.537737 4.31235 0 3.51466 0H0.732811C0.328104 0 0 0.328104 0 0.732811C0 1.13752 0.328104 1.46562 0.732811 1.46562H3.51466C3.65199 1.46562 3.7729 1.5582 3.80862 1.68996L7.14364 14.0635C6.55724 14.0848 6.01106 14.3233 5.59687 14.7436C5.16168 15.1852 4.92796 15.7698 4.93876 16.3897C4.96035 17.6295 5.98673 18.6381 7.22674 18.6381H8.29528C8.13645 18.9715 8.04729 19.3442 8.04729 19.7374C8.04729 21.1517 9.1979 22.3023 10.6122 22.3023C12.0266 22.3023 13.1772 21.1517 13.1772 19.7374C13.1772 19.3442 13.088 18.9715 12.9291 18.6381H17.5564C17.3977 18.9714 17.3086 19.3439 17.3086 19.737C17.3086 21.1513 18.4592 22.3019 19.8735 22.3019C21.2878 22.3019 22.4385 21.1513 22.4385 19.737C22.4385 19.3286 22.342 18.9425 22.1715 18.5994C22.4615 18.5018 22.6706 18.2282 22.6706 17.9054C22.6706 17.5007 22.3425 17.1726 21.9378 17.1726H7.22674ZM11.7115 19.7374C11.7115 20.3436 11.2184 20.8368 10.6122 20.8368C10.006 20.8368 9.51287 20.3436 9.51287 19.7374C9.51287 19.1316 10.0055 18.6387 10.6113 18.6382H10.6131C11.2189 18.6387 11.7115 19.1316 11.7115 19.7374ZM19.8735 20.8364C19.2674 20.8364 18.7742 20.3432 18.7742 19.737C18.7742 19.1369 19.2578 18.6478 19.8557 18.6382H19.8914C20.4894 18.6478 20.973 19.1369 20.973 19.737C20.9729 20.3432 20.4797 20.8364 19.8735 20.8364ZM23.5308 6.07105C23.5351 6.07652 23.5345 6.07911 23.5335 6.08331L22.7842 9.32844H20.2466L20.6787 6.0541L23.5195 6.06553C23.5239 6.06563 23.5265 6.06563 23.5308 6.07105ZM15.9757 14.0665V10.7941H18.5749L18.143 14.0665H15.9757ZM12.3419 14.0665L11.9065 10.7941H14.5101V14.0665H12.3419ZM8.96834 14.0665H8.96604C8.78743 14.0665 8.63007 13.946 8.58361 13.7744L7.78035 10.7941H10.4279L10.8633 14.0665H8.96834ZM11.7114 9.32849L11.2707 6.01623L14.5101 6.02928V9.32849H11.7114ZM15.9757 9.32849V6.03519L19.2012 6.04818L18.7683 9.32849H15.9757ZM9.79138 6.01022L10.2329 9.32844H7.38532L6.48738 5.99689L9.79138 6.01022ZM21.4008 14.0665H19.6213L20.0531 10.7941H22.4457L21.755 13.7848C21.7167 13.9507 21.5711 14.0665 21.4008 14.0665Z" fill="white"/>
</svg>
