<svg width="20" height="20" viewBox="0 0 20 20" fill="none" xmlns="http://www.w3.org/2000/svg">
<path d="M14.1666 2.50001H17.5C17.721 2.50001 17.9329 2.58781 18.0892 2.74409C18.2455 2.90037 18.3333 3.11233 18.3333 3.33334V16.6667C18.3333 16.8877 18.2455 17.0997 18.0892 17.2559C17.9329 17.4122 17.721 17.5 17.5 17.5H2.49996C2.27895 17.5 2.06698 17.4122 1.9107 17.2559C1.75442 17.0997 1.66663 16.8877 1.66663 16.6667V3.33334C1.66663 3.11233 1.75442 2.90037 1.9107 2.74409C2.06698 2.58781 2.27895 2.50001 2.49996 2.50001H5.83329V0.833344H7.49996V2.50001H12.5V0.833344H14.1666V2.50001ZM12.5 4.16668H7.49996V5.83334H5.83329V4.16668H3.33329V7.50001H16.6666V4.16668H14.1666V5.83334H12.5V4.16668ZM16.6666 9.16668H3.33329V15.8333H16.6666V9.16668ZM4.99996 11.6667H6.66663V13.3333H4.99996V11.6667ZM8.33329 11.6667H15V13.3333H8.33329V11.6667Z" fill="#7C7F99"/>
</svg>
