<svg width="13" height="17" viewBox="0 0 13 17" fill="none" xmlns="http://www.w3.org/2000/svg">
<path d="M1.41846 3.74207L2.21753 14.3526C2.29377 15.3438 3.12029 16.1246 4.0688 16.1246H8.92726C9.87577 16.1246 10.7023 15.3438 10.7785 14.3526L11.5807 3.74207H1.41846ZM4.48969 14.746C4.49884 14.9626 4.33414 15.1334 4.1237 15.1334C3.91326 15.1334 3.73637 14.9595 3.72417 14.746L3.27888 5.70009C3.26363 5.4073 3.45273 5.16941 3.69977 5.16941C3.94681 5.16941 4.1542 5.4073 4.1664 5.70009L4.48969 14.746ZM6.88079 14.746C6.88079 14.9626 6.70695 15.1334 6.49956 15.1334C6.29216 15.1334 6.11832 14.9595 6.11832 14.746L6.05732 5.70009C6.05427 5.4073 6.25252 5.16941 6.49956 5.16941C6.7466 5.16941 6.94484 5.4073 6.94179 5.70009L6.88079 14.746ZM9.2719 14.746C9.26275 14.9626 9.0828 15.1334 8.87236 15.1334C8.66192 15.1334 8.50028 14.9595 8.50638 14.746L8.82966 5.70009C8.83881 5.4073 9.04926 5.16941 9.2963 5.16941C9.54334 5.16941 9.73243 5.4073 9.71718 5.70009L9.2719 14.746Z" fill="#FAFAFA"/>
<path d="M12.2733 3.21754H0.726449C0.671552 2.57402 1.05279 2.04639 1.57737 2.04639H11.4254C11.947 2.04639 12.3282 2.57707 12.2733 3.21754Z" fill="#FAFAFA"/>
<path d="M8.58281 2.47936H4.41668L4.41058 2.24147C4.38618 1.49425 4.85586 0.875122 5.45974 0.875122H7.5428C8.14363 0.875122 8.61331 1.49425 8.59196 2.23842L8.58281 2.47936Z" fill="#FAFAFA"/>
</svg>
